# xmcd
#
# Track frame offsets:
#	150
#	18148
#	28689
#	41540
#	53559
#	67613
#	86781
#	95982
#	106468
#	120248
#	133568
#	149146
#	162339
#	172910
#	182201
#	195851
#	208430
#
# Disc length: 2903 seconds
#
# Revision: 4
# Processed by: cddbd v1.5.2PL0 Copyright (c) Steve Scherf et al.
# Submitted via: audiograbber 1.83.01
#
DISCID=e80b5511
DTITLE=Various Artist - Pure... Country  [CD02)
DYEAR=2010
DGENRE=Country
TTITLE0=Billy Swan - I Can Help
TTITLE1=The Statler Brothers - Flowers On The Wall
TTITLE2=The Browns - The Three Bells
TTITLE3=Charlie Rich - The Most Beautiful Girl
TTITLE4=George Jones - The Grand Tour
TTITLE5=Kris Kristofferson - Me And Bobby McGee
TTITLE6=Charley Pride - Kiss An Angel Good Mornin'
TTITLE7=Connie Smith - Once A Day
TTITLE8=Barbara Fairchild - Teddy Bear Song
TTITLE9=Carl Butler - Don't Let Me Cross Over
TTITLE10=B.J. Thomas - Whatever Happened To Old Fashioned Love
TTITLE11=David Houston - Almost Persuaded
TTITLE12=Floyd Cramer - San Antonio Rose
TTITLE13=Lester Flatt, Earl Scruggs and The Foggy Mountain Boys - The Ballad Of J
TTITLE13=ed Clampett
TTITLE14=Jimmy Dean - Big Bad John
TTITLE15=Porter Wagoner - A Satisfied Mind 
TTITLE16=Elvis Presley - Don't Be Cruel
EXTD=
EXTT0=
EXTT1=
EXTT2=
EXTT3=
EXTT4=
EXTT5=
EXTT6=
EXTT7=
EXTT8=
EXTT9=
EXTT10=
EXTT11=
EXTT12=
EXTT13=
EXTT14=
EXTT15=
EXTT16=
PLAYORDER=
